<?xml version="1.0" encoding="UTF-8"?>
<svg version="1.1" xmlns="http://www.w3.org/2000/svg" width="612" height="408">
<path d="M0 0 C0 8.25 0 16.5 0 25 C-0.99 25 -1.98 25 -3 25 C-3.29003906 24.11248047 -3.29003906 24.11248047 -3.5859375 23.20703125 C-4.1225433 21.5786186 -4.66576566 19.95237461 -5.21484375 18.328125 C-5.80499939 16.57821078 -6.37601398 14.82182286 -6.9375 13.0625 C-8.82396781 9.40053307 -12.93395616 8.55159257 -16.6875 7.3125 C-22.79083162 5.53011112 -27.70137233 6.10037427 -33.75 7.75 C-39.30804467 10.83780259 -42.1062247 15.01965696 -44 21 C-44.68237477 26.91746868 -43.90634682 32.38129358 -42 38 C-40.515 38.495 -40.515 38.495 -39 39 C-39 39.66 -39 40.32 -39 41 C-37.68 41.33 -36.36 41.66 -35 42 C-35 42.66 -35 43.32 -35 44 C-34.43796875 44.25265625 -33.8759375 44.5053125 -33.296875 44.765625 C-30.67204804 46.17624629 -28.55210708 47.85845979 -26.25 49.75 C-23.26315517 52.17599623 -20.27612254 54.57984525 -17.1875 56.875 C-16.56230469 57.34164062 -15.93710937 57.80828125 -15.29296875 58.2890625 C-13.99229224 59.25958433 -12.69127392 60.22964953 -11.38916016 61.19824219 C-9.5878592 62.54240793 -7.79358295 63.89555816 -6 65.25 C-5.41114014 65.68683105 -4.82228027 66.12366211 -4.21557617 66.57373047 C-2.77308292 67.66832955 -1.38136773 68.82920662 0 70 C0 70.66 0 71.32 0 72 C0.58910156 72.23847656 1.17820312 72.47695312 1.78515625 72.72265625 C6.13808492 75.23307543 8.39235756 79.82660797 11 84 C11.515625 84.76957031 12.03125 85.53914063 12.5625 86.33203125 C16.2294533 92.78045197 16.45769051 98.99660407 16.5 106.25 C16.50636475 107.19713867 16.51272949 108.14427734 16.51928711 109.12011719 C16.31619588 120.25383346 11.16142223 128.77709091 3.625 136.8125 C-5.62089457 145.53466198 -18.33250713 147.51167746 -30.63256836 147.42138672 C-43.64814724 146.98037866 -54.1846251 142.09893326 -63.3125 132.9375 C-69.89783294 125.09030685 -71.74736194 115.31894414 -71.3828125 105.26953125 C-70.33704876 96.3378552 -67.71021537 87.34594654 -61 81 C-60.34 81 -59.68 81 -59 81 C-58.67 80.01 -58.34 79.02 -58 78 C-57.01 78 -56.02 78 -55 78 C-56.15244427 81.07318472 -57.48494008 83.96925076 -59 86.875 C-65.19528967 99.26557934 -64.4278936 110.90815776 -61 124 C-60.34 124 -59.68 124 -59 124 C-58.9175 124.61875 -58.835 125.2375 -58.75 125.875 C-58.22125642 128.10716326 -58.22125642 128.10716326 -56.375 128.9375 C-55.59125 129.288125 -54.8075 129.63875 -54 130 C-52.92895261 130.80119909 -51.8673815 131.61513298 -50.8125 132.4375 C-42.87902386 138.10666477 -34.57172552 138.8680525 -25 138 C-19.66615003 136.96148881 -15.80754474 135.92859385 -12 132 C-11.34 132 -10.68 132 -10 132 C-10.33 131.34 -10.66 130.68 -11 130 C-24.53 130 -38.06 130 -52 130 C-48.07291692 126.07291692 -46.82880209 125.36863624 -41.90234375 124.1015625 C-38.79523175 122.30237239 -38.2773742 120.36806442 -37 117 C-36.52320255 112.77034132 -36.50811314 108.55810223 -36.49609375 104.3046875 C-36.48610855 103.07968536 -36.47612335 101.85468323 -36.46583557 100.59255981 C-36.45067647 98.00884371 -36.44360909 95.42506912 -36.4440918 92.84130859 C-36.43751082 88.88151304 -36.38294474 84.92419813 -36.32617188 80.96484375 C-36.31737329 78.45313358 -36.31141675 75.9414115 -36.30859375 73.4296875 C-36.2870372 72.24422333 -36.26548065 71.05875916 -36.24327087 69.83737183 C-36.26894327 66.77363096 -36.34156313 63.99233247 -37 61 C-39.6949085 58.26326456 -39.6949085 58.26326456 -43 57 C-45.875 54.375 -45.875 54.375 -48 52 C-48 51.34 -48 50.68 -48 50 C-48.598125 49.773125 -49.19625 49.54625 -49.8125 49.3125 C-54.02819134 46.7830852 -55.88000723 41.88176539 -57.48828125 37.36328125 C-59.61982292 27.51913843 -55.89881862 18.12124622 -51.125 9.6875 C-38.40670005 -6.39740875 -17.95887896 -2.56555414 0 0 Z M-23 72 C-23.10150385 78.60183567 -23.17150894 85.20346976 -23.21972656 91.8059082 C-23.2398294 94.05142741 -23.26711605 96.29689435 -23.30175781 98.54223633 C-23.3503331 101.7717784 -23.37298237 105.00062775 -23.390625 108.23046875 C-23.41127014 109.23272995 -23.43191528 110.23499115 -23.45318604 111.2676239 C-23.45460297 115.67892883 -23.45300203 118.25367075 -21.12573242 122.08789062 C-18.83436091 124.14899338 -16.94265147 125.23410738 -14.0625 126.3125 C-13.22847656 126.63863281 -12.39445312 126.96476562 -11.53515625 127.30078125 C-8.90502373 128.0261953 -6.71428328 128.13110134 -4 128 C1.16396165 119.73766137 3.09499819 111.736249 2 102 C0.55240113 96.50910775 -1.19060653 91.30931387 -5 87 C-5.66 87 -6.32 87 -7 87 C-7.21785156 86.27296875 -7.43570313 85.5459375 -7.66015625 84.796875 C-9.34173825 81.28663385 -11.39650915 79.65694628 -14.4375 77.25 C-15.40558594 76.47140625 -16.37367188 75.6928125 -17.37109375 74.890625 C-19.91588856 72.86294435 -19.91588856 72.86294435 -23 72 Z " fill="#E7E7E7" transform="translate(302,111)"/>
<path d="M0 0 C14.19 0 28.38 0 43 0 C40.02155032 2.97844968 39.25007564 3.40772381 35.4375 4.375 C31.7142047 5.4347099 31.7142047 5.4347099 29.5 8.5625 C29.335 9.366875 29.17 10.17125 29 11 C28.67 11.66 28.34 12.32 28 13 C27.90229173 14.35477101 27.86499941 15.71416975 27.85955811 17.07244873 C27.85384796 17.92477081 27.84813782 18.7770929 27.84225464 19.65524292 C27.84113678 20.59240143 27.84001892 21.52955994 27.83886719 22.49511719 C27.83390228 23.48063568 27.82893738 24.46615417 27.82382202 25.48153687 C27.80917541 28.75332326 27.80239366 32.02506115 27.796875 35.296875 C27.79112489 37.56650799 27.78536714 39.83614097 27.77960205 42.10577393 C27.76908446 46.87064847 27.76324699 51.6355061 27.75976562 56.40039062 C27.75428424 62.50482169 27.73026685 68.60902932 27.70179367 74.71339035 C27.68316404 79.40428315 27.67796147 84.09512222 27.67642975 88.78604889 C27.67340262 91.03630035 27.66537209 93.28655085 27.65224457 95.53676605 C27.63518026 98.68711794 27.63706565 101.83692527 27.64355469 104.98730469 C27.6343399 105.91636627 27.62512512 106.84542786 27.6156311 107.80264282 C27.64930329 113.02414502 28.27820706 116.39675125 31 121 C31 121.66 31 122.32 31 123 C33.53479683 123.70974311 35.86488271 124.092666 38.5 124.375 C41.96322146 124.9934324 43.45848729 125.6618083 46 128 C45.67 128.66 45.34 129.32 45 130 C44.00887207 129.83628906 43.01774414 129.67257813 41.99658203 129.50390625 C38.01278792 128.93720226 34.07225723 128.88931466 30.0546875 128.9375 C28.95533371 128.94317993 28.95533371 128.94317993 27.83377075 128.94897461 C25.51411764 128.96108816 23.19459514 128.97971622 20.875 129 C17.80989901 129.02668067 14.74486137 129.04662199 11.6796875 129.0625 C10.63577347 129.07494751 10.63577347 129.07494751 9.57077026 129.08764648 C5.91273593 129.10601759 2.55641247 128.87341433 -1 128 C2.75467691 124.94063363 6.08113061 123 11 123 C14.02536158 116.14251374 14.14047202 109.5907922 14.09765625 102.2265625 C14.0962413 101.3028183 14.09482635 100.3790741 14.09336853 99.42733765 C14.08779609 96.49319138 14.07524869 93.55912299 14.0625 90.625 C14.05748144 88.62890736 14.05291915 86.63281351 14.04882812 84.63671875 C14.03783569 79.75778275 14.0205901 74.87890455 14 70 C12.73406006 69.99589111 11.46812012 69.99178223 10.16381836 69.98754883 C5.44645013 69.96570195 0.7299094 69.91135435 -3.98706055 69.84741211 C-6.02474001 69.82428056 -8.06253821 69.80984781 -10.1003418 69.80444336 C-13.03769511 69.79511843 -15.97319333 69.75405034 -18.91015625 69.70703125 C-19.81459976 69.7109639 -20.71904327 69.71489655 -21.65089417 69.71894836 C-27.96115524 69.5748778 -31.31794259 68.31316563 -36 64 C-36 63.01 -36 62.02 -36 61 C-19.17 61 -2.34 61 15 61 C14.505 56.545 14.505 56.545 14 52 C13.94550981 49.34559567 13.93634828 46.68987154 13.97265625 44.03515625 C13.9853002 42.5605492 13.99766133 41.0859397 14.00976562 39.61132812 C14.03450791 37.33626249 14.06251716 35.06133208 14.09594727 32.78637695 C14.66456586 20.15732446 14.66456586 20.15732446 12 8 C9.83659299 6.01370818 7.75377188 4.98063926 5 4 C3.865625 3.5875 2.73125 3.175 1.5625 2.75 C0.2940625 2.37875 0.2940625 2.37875 -1 2 C-0.67 1.34 -0.34 0.68 0 0 Z " fill="#EEEEEE" transform="translate(338,112)"/>
<path d="M0 0 C2.8125 -0.3125 2.8125 -0.3125 6 0 C7.875 2.5 7.875 2.5 9 5 C7.75 7 7.75 7 6 9 C4.68 9 3.36 9 2 9 C2 9.99 2 10.98 2 12 C1.01 12 0.02 12 -1 12 C-1 11.34 -1 10.68 -1 10 C-1.66 10 -2.32 10 -3 10 C-3 7.69 -3 5.38 -3 3 C-2.34 3 -1.68 3 -1 3 C-0.67 2.01 -0.34 1.02 0 0 Z " fill="#1A211E" transform="translate(393,223)"/>
<path d="M0 0 C14.19 0 28.38 0 43 0 C39.65094547 3.34905453 37.50621146 3.89470285 33 5 C33.33 4.34 33.66 3.68 34 3 C34.66 3 35.32 3 36 3 C36 2.34 36 1.68 36 1 C26.1 1 16.2 1 6 1 C6 1.66 6 2.32 6 3 C6.99 3.33 7.98 3.66 9 4 C7 5 7 5 5.0546875 4.44140625 C4.33539063 4.15136719 3.61609375 3.86132812 2.875 3.5625 C2.15054687 3.27503906 1.42609375 2.98757812 0.6796875 2.69140625 C-0.15175781 2.34916016 -0.15175781 2.34916016 -1 2 C-0.67 1.34 -0.34 0.68 0 0 Z " fill="#A7A7A7" transform="translate(338,112)"/>
<path d="M0 0 C2.8125 -0.3125 2.8125 -0.3125 6 0 C7.875 2.5 7.875 2.5 9 5 C8.01 6.32 7.02 7.64 6 9 C5.01 8.67 4.02 8.34 3 8 C3 6.35 3 4.7 3 3 C2.01 3 1.02 3 0 3 C0 2.01 0 1.02 0 0 Z " fill="#343836" transform="translate(393,223)"/>
<path d="M0 0 C1.32 0.33 2.64 0.66 4 1 C4 1.66 4 2.32 4 3 C4.66 3 5.32 3 6 3 C6 3.99 6 4.98 6 6 C5.34 6 4.68 6 4 6 C3.67 6.99 3.34 7.98 3 9 C1.125 8.75 1.125 8.75 -1 8 C-2.25 5.9375 -2.25 5.9375 -3 4 C-2.01 4 -1.02 4 0 4 C0 4.66 0 5.32 0 6 C0.99 6 1.98 6 3 6 C1.515 3.03 1.515 3.03 0 0 Z " fill="#4B5455" transform="translate(385,232)"/>
<path d="M0 0 C-0.75925781 0.47050781 -1.51851563 0.94101563 -2.30078125 1.42578125 C-3.29464844 2.04839844 -4.28851563 2.67101562 -5.3125 3.3125 C-6.29863281 3.92738281 -7.28476562 4.54226562 -8.30078125 5.17578125 C-10.50172035 6.66324661 -12.23328988 8.0403386 -14 10 C-14.66 9.67 -15.32 9.34 -16 9 C-14.33333333 7.33333333 -12.66666667 5.66666667 -11 4 C-10.505 3.443125 -10.01 2.88625 -9.5 2.3125 C-6.3615366 -0.43365548 -3.95464679 -1.3182156 0 0 Z " fill="#A7A7A7" transform="translate(267,112)"/>
<path d="M0 0 C0.99 0 1.98 0 3 0 C1.87548273 2.9719385 0.77706209 5.33440687 -1 8 C-1.33 7.34 -1.66 6.68 -2 6 C-2.99 6.33 -3.98 6.66 -5 7 C-4.34 5.68 -3.68 4.36 -3 3 C-2.34 3 -1.68 3 -1 3 C-0.67 2.01 -0.34 1.02 0 0 Z " fill="#8A8A8A" transform="translate(244,189)"/>
<path d="M0 0 C6.4 -0.36923077 6.4 -0.36923077 9.4375 1.5 C9.953125 1.995 10.46875 2.49 11 3 C10.67 3.66 10.34 4.32 10 5 C6.08788267 3.84414715 3.1254959 2.64465038 0 0 Z " fill="#A0A1A0" transform="translate(373,237)"/>
<path d="M0 0 C4.95 0.99 4.95 0.99 10 2 C9.01 3.32 8.02 4.64 7 6 C6.34 6 5.68 6 5 6 C4.67 5.01 4.34 4.02 4 3 C2.68 2.01 1.36 1.02 0 0 Z " fill="#959595" transform="translate(287,237)"/>
<path d="M0 0 C0.66 0 1.32 0 2 0 C2 0.99 2 1.98 2 3 C2.66 3 3.32 3 4 3 C4 3.99 4 4.98 4 6 C2.68 6 1.36 6 0 6 C0 4.02 0 2.04 0 0 Z " fill="#2C3733" transform="translate(390,227)"/>
<path d="M0 0 C1.98 0 3.96 0 6 0 C5.34 0.66 4.68 1.32 4 2 C4.3185177 4.10820797 4.3185177 4.10820797 5 6 C4.34 5.67 3.68 5.34 3 5 C3 4.34 3 3.68 3 3 C2.01 3 1.02 3 0 3 C0 2.01 0 1.02 0 0 Z " fill="#2D322E" transform="translate(393,223)"/>
</svg>
